HIERARCHY
ROOT joint_0
{
	OFFSET 0.000000 0.000000 0.000000
	CHANNELS 6 Xposition Yposition Zposition Zrotation Yrotation Xrotation 
	JOINT joint_1
	{
		OFFSET 6.590088 -1.122192 114.019043
		CHANNELS 3 Zrotation Yrotation Xrotation
		JOINT joint_2
		{
			OFFSET -5.956055 -0.820435 104.151001
			CHANNELS 3 Zrotation Yrotation Xrotation
			JOINT joint_3
			{
				OFFSET -7.343506 -1.103027 103.942993
				CHANNELS 3 Zrotation Yrotation Xrotation
				JOINT joint_4
				{
					OFFSET 3.109131 -2.857056 147.715942
					CHANNELS 3 Zrotation Yrotation Xrotation
					JOINT joint_5
					{
						OFFSET 28.592285 -2.852295 87.703979
						CHANNELS 3 Zrotation Yrotation Xrotation
						End Site
						{
							OFFSET 0.000000 0.000000 0.000000
						}
					}
				}
				JOINT joint_6
				{
					OFFSET -0.332520 -33.687378 82.401978
					CHANNELS 3 Zrotation Yrotation Xrotation
					JOINT joint_7
					{
						OFFSET -7.397461 -168.719177 -22.750977
						CHANNELS 3 Zrotation Yrotation Xrotation
						JOINT joint_8
						{
							OFFSET 17.065918 -24.903137 -272.721069
							CHANNELS 3 Zrotation Yrotation Xrotation
							JOINT joint_9
							{
								OFFSET 33.311279 -37.031616 -278.192993
								CHANNELS 3 Zrotation Yrotation Xrotation
								End Site
								{
									OFFSET 0.000000 0.000000 0.000000
								}
							}
						}
					}
				}
				JOINT joint_10
				{
					OFFSET 3.914307 30.461670 83.552979
					CHANNELS 3 Zrotation Yrotation Xrotation
					JOINT joint_11
					{
						OFFSET 15.543701 166.845459 -30.963013
						CHANNELS 3 Zrotation Yrotation Xrotation
						JOINT joint_12
						{
							OFFSET 35.734863 35.017700 -269.786011
							CHANNELS 3 Zrotation Yrotation Xrotation
							JOINT joint_13
							{
								OFFSET 70.506592 13.977783 -273.320007
								CHANNELS 3 Zrotation Yrotation Xrotation
								End Site
								{
									OFFSET 0.000000 0.000000 0.000000
								}
							}
						}
					}
				}
			}
		}
	}
	JOINT joint_14
	{
		OFFSET -0.314697 -95.093994 -116.004028
		CHANNELS 3 Zrotation Yrotation Xrotation
		JOINT joint_15
		{
			OFFSET -22.490723 2.017883 -455.510986
			CHANNELS 3 Zrotation Yrotation Xrotation
			JOINT joint_16
			{
				OFFSET -46.427490 7.144104 -496.360985
				CHANNELS 3 Zrotation Yrotation Xrotation
				JOINT joint_17
				{
					OFFSET 209.055420 -37.122803 -85.191002
					CHANNELS 3 Zrotation Yrotation Xrotation
					End Site
					{
						OFFSET 0.000000 0.000000 0.000000
					}
				}
			}
		}
	}
	JOINT joint_18
	{
		OFFSET 5.652832 94.642578 -116.244019
		CHANNELS 3 Zrotation Yrotation Xrotation
		JOINT joint_19
		{
			OFFSET -12.379883 -7.332642 -455.843994
			CHANNELS 3 Zrotation Yrotation Xrotation
			JOINT joint_20
			{
				OFFSET -45.227051 -8.172241 -496.457985
				CHANNELS 3 Zrotation Yrotation Xrotation
				JOINT joint_21
				{
					OFFSET 210.522949 -11.530396 -88.809004
					CHANNELS 3 Zrotation Yrotation Xrotation
					End Site
					{
						OFFSET 0.000000 0.000000 0.000000
					}
				}
			}
		}
	}
}
MOTION
Frames: 11
Frame Time: 0.016667
-2204.526611 919.792358 1136.108032 1.008076 6.283645 0.415809 0.556240 -1.049247 -0.242377 0.586447 0.182679 0.007580 0.418183 -0.068072 -0.040775 -0.239560 -8.145190 1.385688 0.000000 0.000000 0.000000 -1.274720 -6.977049 1.444478 -2.104790 -5.915852 -12.805900 6.518018 -64.594222 8.337415 0.000000 0.000000 0.000000 4.274671 -2.172978 2.163276 6.543156 -3.218892 1.575395 173.383456 -84.633282 175.648981 0.000000 0.000000 0.000000 5.268999 -38.459540 -19.305012 6.822311 55.501994 13.830147 14.507424 10.778033 7.442858 0.000000 0.000000 0.000000 -6.387397 -37.520237 14.475574 -6.700243 23.117650 0.828468 -8.070542 12.797209 -2.336707 0.000000 0.000000 0.000000 
-2190.709717 926.724304 1127.662964 -0.523941 5.225846 -0.016145 0.763967 0.270636 0.795204 0.773676 -0.156198 -0.154357 0.632257 0.097705 0.048145 -0.181524 -8.019893 1.235660 0.000000 0.000000 0.000000 -0.955408 -7.755174 1.038339 -2.092584 -6.603396 -13.410268 6.719443 -63.352811 8.613186 0.000000 0.000000 0.000000 4.192209 -2.136653 2.112089 7.299454 -3.003457 1.744224 173.794939 -84.216863 173.836066 0.000000 0.000000 0.000000 4.965666 -39.431119 -19.814512 7.216264 58.018885 14.144821 14.083254 11.917579 7.600719 0.000000 0.000000 0.000000 -6.433389 -35.432890 14.061634 -5.835943 21.559153 2.960744 -6.620808 10.897042 -1.872100 0.000000 0.000000 0.000000 
-2176.789551 933.801697 1117.477051 -1.838610 3.964779 -0.291350 0.985647 1.589649 1.728763 0.818801 -0.335166 -0.244772 0.673353 0.275530 0.140730 -0.120685 -7.928253 1.072376 0.000000 0.000000 0.000000 -0.455944 -8.675599 0.607453 -2.137479 -7.371716 -14.198987 6.905901 -61.968427 9.177680 0.000000 0.000000 0.000000 3.993974 -2.122933 2.289976 8.223769 -2.728115 1.893387 174.360308 -83.926054 171.752418 0.000000 0.000000 0.000000 4.542808 -39.962216 -20.307541 7.255678 59.931142 13.936725 12.394872 11.470260 6.985649 0.000000 0.000000 0.000000 -5.615804 -33.753729 12.853036 -3.939730 22.524069 5.309830 -3.932563 6.483670 -1.110603 0.000000 0.000000 0.000000 
-2164.197998 939.398560 1108.592041 -2.918605 2.993902 -0.193808 1.266716 2.816867 2.124067 0.808301 -0.493700 -0.283909 0.641687 0.449796 0.181017 -0.109540 -8.050864 1.069189 0.000000 0.000000 0.000000 -0.008544 -9.458954 0.388630 -2.117295 -8.010455 -14.653061 7.110870 -61.029743 9.366856 0.000000 0.000000 0.000000 3.768612 -2.113491 2.467868 8.933820 -2.499938 1.934103 174.818737 -83.485181 170.383232 0.000000 0.000000 0.000000 4.653031 -40.189722 -21.003993 7.283761 59.979750 13.518043 10.871747 9.603163 6.073634 0.000000 0.000000 0.000000 -4.633835 -32.963852 11.794483 -2.558025 24.301428 6.581079 -2.073255 2.899282 -0.631619 0.000000 0.000000 0.000000 
-2153.904053 942.641541 1102.125000 -3.703231 2.615794 0.476179 1.506391 3.800418 1.574712 0.796218 -0.609269 -0.226190 0.604956 0.650848 0.142344 -0.200810 -8.601317 1.392471 0.000000 0.000000 0.000000 0.348051 -9.979988 0.527201 -1.975586 -8.412179 -14.493613 7.329702 -60.834552 8.676056 0.000000 0.000000 0.000000 3.494022 -2.072637 2.583972 9.220852 -2.349357 1.683833 175.016170 -82.735514 170.321726 0.000000 0.000000 0.000000 5.628339 -40.011075 -22.060274 7.240925 56.612615 12.850007 9.829672 6.077088 4.916176 0.000000 0.000000 0.000000 -3.625375 -33.687814 11.137837 -2.184809 27.092644 6.116177 -1.925018 1.341492 -0.679773 0.000000 0.000000 0.000000 
-2144.938721 944.404907 1096.958008 -4.223918 2.484127 1.486710 1.569773 4.802645 0.481905 0.786871 -0.785867 -0.099290 0.586581 0.853871 0.048888 -0.341300 -9.362464 1.875739 0.000000 0.000000 0.000000 0.651882 -10.336997 0.860270 -1.767695 -8.670519 -14.020611 7.557809 -61.128997 7.590064 0.000000 0.000000 0.000000 3.205903 -2.013455 2.707701 9.304828 -2.250185 1.290302 175.097618 -81.855321 170.942833 0.000000 0.000000 0.000000 6.892590 -39.103338 -23.189814 6.937670 50.683547 11.724355 8.764770 2.414457 3.736672 0.000000 0.000000 0.000000 -2.401191 -35.183207 10.577132 -2.229089 30.792388 4.674435 -2.633248 0.725278 -0.997916 0.000000 0.000000 0.000000 
-2135.823486 945.685547 1092.776978 -4.502706 2.419235 2.457647 1.457421 5.717217 -0.508189 0.754602 -1.058541 0.042990 0.557528 1.000803 -0.059429 -0.417580 -9.869518 2.160691 0.000000 0.000000 0.000000 0.764613 -10.575554 1.155858 -1.551441 -8.851503 -13.588443 7.822708 -61.713417 6.911757 0.000000 0.000000 0.000000 3.075658 -1.975760 2.786784 9.476468 -2.218556 1.147849 175.245171 -81.080973 171.411446 0.000000 0.000000 0.000000 7.822069 -37.965463 -24.184304 6.606562 45.507823 10.538513 7.945511 0.196351 2.970492 0.000000 0.000000 0.000000 -1.364920 -36.400433 10.154888 -2.352087 33.840357 3.127936 -3.458180 0.574620 -1.330264 0.000000 0.000000 0.000000 
-2125.642822 946.637146 1089.515015 -4.533880 2.688313 3.301375 1.276397 5.884669 -1.221580 0.690298 -1.195164 0.222590 0.477859 1.078911 -0.186131 -0.357608 -9.852207 2.015444 0.000000 0.000000 0.000000 0.511937 -10.653322 1.370152 -1.340549 -8.932138 -13.348648 8.154097 -62.630959 7.068160 0.000000 0.000000 0.000000 3.236352 -1.948939 2.714921 9.888351 -2.282272 1.592614 175.539418 -80.434035 171.336899 0.000000 0.000000 0.000000 8.423565 -37.324998 -25.111771 6.487182 43.103260 9.576552 7.595091 -1.638435 2.472726 0.000000 0.000000 0.000000 -0.758695 -37.356931 9.994620 -2.440489 35.770039 1.600809 -4.081377 0.587357 -1.571012 0.000000 0.000000 0.000000 
-2115.312744 947.106995 1087.238037 -4.438532 3.211940 4.088190 1.095245 5.553751 -1.805952 0.616690 -1.214137 0.416257 0.374365 1.113314 -0.323680 -0.230060 -9.588523 1.654209 0.000000 0.000000 0.000000 0.064035 -10.620907 1.558158 -1.122354 -8.935203 -13.166760 8.529144 -63.810595 7.641261 0.000000 0.000000 0.000000 3.545099 -1.949048 2.557051 10.396072 -2.423487 2.330916 175.912665 -79.906890 171.132419 0.000000 0.000000 0.000000 8.954981 -36.952298 -26.020291 6.501304 42.109387 8.796806 7.494649 -3.578009 2.056006 0.000000 0.000000 0.000000 -0.373027 -38.295880 10.084633 -2.584748 37.179599 -0.112492 -4.743588 0.866706 -1.806850 0.000000 0.000000 0.000000 
-2106.104736 947.631226 1085.833008 -4.573964 3.595131 4.675332 0.993144 5.370431 -2.145942 0.583845 -1.217088 0.536736 0.323311 1.128246 -0.415019 -0.132184 -9.439882 1.382731 0.000000 0.000000 0.000000 -0.223223 -10.674439 1.649401 -0.923879 -8.984458 -12.956884 8.895677 -64.895407 8.160460 0.000000 0.000000 0.000000 3.746020 -2.047776 2.505999 10.852787 -2.574535 2.821372 176.312843 -79.672649 171.181284 0.000000 0.000000 0.000000 9.506459 -36.611593 -26.875605 6.584878 41.541409 8.547996 7.495102 -4.908494 1.796168 0.000000 0.000000 0.000000 -0.058663 -38.906023 10.430328 -2.715426 38.321303 -1.731470 -5.397729 1.138387 -2.040455 0.000000 0.000000 0.000000 
-2098.960938 948.372925 1085.338989 -5.186388 3.687644 4.965304 1.007238 5.608790 -2.142226 0.638778 -1.225668 0.539538 0.386498 1.142688 -0.423486 -0.101746 -9.621463 1.329006 0.000000 0.000000 0.000000 -0.165715 -10.946070 1.606826 -0.762608 -9.157232 -12.690238 9.247295 -65.820828 8.427037 0.000000 0.000000 0.000000 3.691035 -2.308791 2.659230 11.220543 -2.711203 2.795088 176.740041 -79.777786 171.703121 0.000000 0.000000 0.000000 10.221035 -36.324196 -27.759035 6.776642 41.298041 9.230231 7.658179 -5.168882 1.799565 0.000000 0.000000 0.000000 0.211100 -39.143914 11.205021 -2.847813 39.385068 -3.248297 -6.160055 1.390532 -2.318857 0.000000 0.000000 0.000000 
